<svg xmlns="http://www.w3.org/2000/svg" version="1.1" fill="white" viewBox="-5.0 -10.0 110.0 135.0">
 <path d="m63.816 34.945h-0.011718c-0.51563 0-1.0078 0.20703-1.3711 0.57031-0.36719 0.36328-0.57031 0.85938-0.57031 1.375l0.003907 10.215c1.2188 0.67969 2.5391 1.1133 3.8828 1.3047v-9.5742h10.352v5.5c2.1719-2.6875 2.9297-6.1406 2.2539-9.3594v-0.003906c-0.10156-0.015625-0.20312-0.023437-0.30859-0.023437zm3.5273-11.586h0.003906c3.5625 0 7.125 1.3594 9.8438 4.0781 5.4375 5.4375 5.4375 14.25 0 19.688-2.7188 2.7188-6.2812 4.0781-9.8438 4.0781s-7.125-1.3594-9.8438-4.0781c-5.4375-5.4375-5.4375-14.25 0-19.688 2.7188-2.7188 6.2773-4.0781 9.8398-4.0781zm20.16 31.777-2.3047 2.3047-6.4648-6.4609c0.41406-0.34766 0.81641-0.71484 1.207-1.1055 0.38672-0.38672 0.75391-0.78906 1.0977-1.1992zm-20.156-35.664h-0.003906c-4.5586 0-9.1133 1.7383-12.59 5.2148-6.957 6.957-6.9531 18.234 0 25.188 3.4766 3.4766 8.0352 5.2188 12.594 5.2188 2.7695 0 5.543-0.64453 8.0703-1.9297l8.4062 8.3984c0.36719 0.36719 0.85156 0.57422 1.3672 0.57422h0.011719c0.51562-0.003907 1.0078-0.20703 1.3711-0.57031l5.0547-5.0586c0.75781-0.75781 0.75781-1.9883 0-2.75l-8.4023-8.3945c3.4023-6.6914 2.3086-15.082-3.2852-20.676-3.4766-3.4766-8.0352-5.2148-12.594-5.2148zm-37.406 40.609v11.117h-10.352v-11.117zm-12.273-3.8906h-0.023438c-0.51562 0-1.0078 0.20312-1.3711 0.57031-0.36719 0.36328-0.57031 0.85938-0.57031 1.375v15.008c0 0.51562 0.20312 1.0078 0.57031 1.375 0.36328 0.36328 0.85937 0.57031 1.375 0.57031l14.238-0.003906c1.0742 0 1.9414-0.87109 1.9414-1.9453v-15.004c0-1.0742-0.86719-1.9453-1.9414-1.9453zm23.094-30.047h-0.039063c-0.51562 0-1.0078 0.20703-1.3711 0.57031-0.36328 0.36328-0.57031 0.85938-0.57031 1.375v45.055c0 0.51562 0.20703 1.0078 0.57031 1.375 0.36328 0.36328 0.85938 0.57031 1.375 0.57031l14.238-0.003906c1.0742 0 1.9453-0.87109 1.9453-1.9453l0.003906-18.219c-1.3828-0.82031-2.6875-1.8164-3.8867-2.9883l-0.007813 19.266h-10.348v-41.164h5.5078c0.50781-1.3477 1.1641-2.6523 1.9648-3.8906zm21.102 47c0 0.51562 0.20312 1.0078 0.57031 1.375 0.36328 0.36328 0.85938 0.57031 1.375 0.57031l14.238-0.003906c1.0742 0 1.9453-0.87109 1.9453-1.9453v-11.625l-3.8906-3.8867v13.57h-10.352l0.007812-13.488c-1.3086-0.10156-2.6133-0.33203-3.8906-0.68359zm-52.312-53.688c-1.0742 0-1.9414 0.86719-1.9414 1.9414v58.914c0 1.0742 0.86719 1.9414 1.9414 1.9414h72.449c1.0742 0 1.9453-0.87109 1.9453-1.9453 0-1.0742-0.87109-1.9414-1.9453-1.9414h-70.504v-56.969c0-1.0742-0.87109-1.9414-1.9453-1.9414z"/>
</svg>