<svg xmlns="http://www.w3.org/2000/svg" fill="white" xmlns:xlink="http://www.w3.org/1999/xlink" version="1.1" x="0px" y="0px" viewBox="0 0 100 125" style="enable-background:new 0 0 100 100;" xml:space="preserve"><path d="M72.9,25.5H27.1c-0.9,0-1.7,0.8-1.7,1.7s0.8,1.7,1.7,1.7h45.8c0.9,0,1.7-0.8,1.7-1.7S73.8,25.5,72.9,25.5z"/><path d="M72.9,39H27.1c-0.9,0-1.7,0.8-1.7,1.7s0.8,1.7,1.7,1.7h45.8c0.9,0,1.7-0.8,1.7-1.7S73.8,39,72.9,39z"/><path d="M72.9,52.6H27.1c-0.9,0-1.7,0.8-1.7,1.7s0.8,1.7,1.7,1.7h45.8c0.9,0,1.7-0.8,1.7-1.7S73.8,52.6,72.9,52.6z"/><path d="M82.6,10.6H17.4c-4.1,0-7.4,3.3-7.4,7.4v45.5c0,4.1,3.3,7.4,7.4,7.4h20.9l10.3,17.8c0.3,0.5,0.9,0.9,1.5,0.9  s1.2-0.3,1.5-0.9l10.3-17.8h20.9c4.1,0,7.4-3.3,7.4-7.4V17.9C90,13.9,86.7,10.6,82.6,10.6z M86.6,63.4c0,2.2-1.8,3.9-3.9,3.9H60.8  c-0.6,0-1.2,0.3-1.5,0.9L50,84.3l-9.3-16.1c-0.3-0.5-0.9-0.9-1.5-0.9H17.4c-2.2,0-3.9-1.8-3.9-3.9V17.9c0-2.2,1.8-3.9,3.9-3.9h65.3  c2.2,0,3.9,1.8,3.9,3.9V63.4z"/></svg>