<svg xmlns="http://www.w3.org/2000/svg" fill="white" data-name="Layer 2" viewBox="0 0 100 125" x="0px" y="0px"><path d="m28.8,86.17c-.83,0-1.5-.67-1.5-1.5V15.33c0-.83.67-1.5,1.5-1.5s1.5.67,1.5,1.5v69.33c0,.83-.67,1.5-1.5,1.5Z"/><path d="m17.59,61.7c-.83,0-1.5-.67-1.5-1.5v-22.42c0-.83.67-1.5,1.5-1.5s1.5.67,1.5,1.5v22.42c0,.83-.67,1.5-1.5,1.5Z"/><path d="m49.91,61.7c-.83,0-1.5-.67-1.5-1.5v-22.42c0-.83.67-1.5,1.5-1.5s1.5.67,1.5,1.5v22.42c0,.83-.67,1.5-1.5,1.5Z"/><path d="m7.5,54.6c-.83,0-1.5-.67-1.5-1.5v-8.59c0-.83.67-1.5,1.5-1.5s1.5.67,1.5,1.5v8.59c0,.83-.67,1.5-1.5,1.5Z"/><path d="m92.5,54.6c-.83,0-1.5-.67-1.5-1.5v-8.59c0-.83.67-1.5,1.5-1.5s1.5.67,1.5,1.5v8.59c0,.83-.67,1.5-1.5,1.5Z"/><path d="m38.88,73.65c-.83,0-1.5-.67-1.5-1.5V25.07c0-.83.67-1.5,1.5-1.5s1.5.67,1.5,1.5v47.08c0,.83-.67,1.5-1.5,1.5Z"/><path d="m71.02,86.17c-.83,0-1.5-.67-1.5-1.5V15.33c0-.83.67-1.5,1.5-1.5s1.5.67,1.5,1.5v69.33c0,.83-.67,1.5-1.5,1.5Z"/><path d="m60.93,73.65c-.83,0-1.5-.67-1.5-1.5V25.07c0-.83.67-1.5,1.5-1.5s1.5.67,1.5,1.5v47.08c0,.83-.67,1.5-1.5,1.5Z"/><path d="m81.67,67.3c-.83,0-1.5-.67-1.5-1.5V31.99c0-.83.67-1.5,1.5-1.5s1.5.67,1.5,1.5v33.81c0,.83-.67,1.5-1.5,1.5Z"/></svg>