<svg xmlns="http://www.w3.org/2000/svg" fill="white" version="1.1" viewBox="-5.0 -10.0 110.0 135.0">
 <path d="m28.559 50.5c-0.83984 1.0195-1.3008 1.7812-1.2383 2.3398 0.17969 2.5781 2.4609 2.8008 4.1406 3.7188 2.2188 2-4.1016 4 3.1602 6-2.6797 1.1797-3.0391 3.1992-1.8789 4.1406 0.5 0.64062 0.35937 1.2188 0.16016 2h-0.003906c-0.41406 1.1484-0.25781 2.4258 0.42187 3.4414 0.67969 1.0117 1.8008 1.6445 3.0195 1.6992h0.73828l3.5-0.51953h0.44141c0.92578 0.003907 1.8125 0.38281 2.457 1.0508 0.64453 0.66406 0.99219 1.5625 0.96484 2.4883v0.51953c0.003906 0.93359 0.38281 1.8281 1.0547 2.4766 0.66797 0.65234 1.5703 1.0078 2.5039 0.98438h20.762c0.99219 0.007812 1.9375-0.41406 2.6055-1.1484 0.66406-0.73828 0.98047-1.7227 0.87109-2.7109v-0.62109c-0.40234-3.4609 0.70312-6.9336 3.043-9.5195 8-8.7617 14.238-24.98 5.6406-36.5-5.3438-7.0781-14.922-11.18-24.223-11.18-4.6445-0.082031-9.2305 1.0781-13.277 3.3594-6.3789 3.875-10.285 10.781-10.32 18.242 0.21875 1.2852 0.25781 2.5977 0.11719 3.8984-0.61719 2.2812-3.0586 4.2617-4.6602 5.8398zm7.6406-8.7383c-0.058594-0.34375-0.089844-0.69141-0.097657-1.043 0.039063-6.3828 3.375-12.289 8.8203-15.617 3.5977-2 7.6602-3.0117 11.777-2.9414 8.6992 0 17.238 3.8984 21.762 10 8 10.699 0.87891 25.738-5.4609 32.699-2.9219 3.2266-4.3086 7.5586-3.8008 11.879v0.58203c0.015625 0.14453-0.027344 0.28906-0.12109 0.39844-0.097656 0.10547-0.23438 0.16406-0.37891 0.16016h-20.699c-0.13281 0.003906-0.26172-0.046875-0.35938-0.14062-0.085937-0.097656-0.13672-0.22656-0.14062-0.35938v-0.57812c0.050781-1.7422-0.60547-3.4297-1.8203-4.6797-1.207-1.2539-2.8633-1.9727-4.6016-2-0.26953-0.023438-0.54688-0.023438-0.81641 0-1.0781 0.14062-2.3008 0.30078-3.6016 0.51953h-0.26172c-0.28125 0-0.32031 0-0.37891-0.14062-0.22656-0.40234-0.27734-0.87891-0.14062-1.3203 0.45312-1.3164 0.34375-2.7656-0.30078-4l0.30078-0.14063c1.1562-0.52344 1.8633-1.7148 1.7656-2.9844-0.10156-1.2656-0.98047-2.3359-2.2031-2.6758l-0.82031-0.23828c0.8125-1.7422 0.34375-3.8164-1.1406-5.0391-0.16016-0.14062-0.33594-0.26172-0.51953-0.36328-0.51953-0.28125-1.0195-0.5-1.4805-0.69922-0.30859-0.11328-0.60938-0.24609-0.90234-0.39844l0.26172-0.32031 0.67969-0.66016c2.1133-1.6719 3.7266-3.8906 4.6602-6.4219 0.21875-1.1484 0.22656-2.3281 0.019531-3.4766z"/>
 <path d="m13.5 62.5c0.011719 0.82422 0.67578 1.4883 1.5 1.5h7.3984c0.82812 0 1.5-0.67188 1.5-1.5s-0.67188-1.5-1.5-1.5h-7.3984c-0.82812 0-1.5 0.67188-1.5 1.5z"/>
 <path d="m24.559 56-6.418-3.6406c-0.71484-0.375-1.5977-0.12109-2 0.58203-0.39062 0.70703-0.14062 1.5977 0.55859 2l6.4219 3.6406v-0.003906c0.22266 0.13672 0.47656 0.20703 0.73828 0.20312 0.53906 0 1.0391-0.28906 1.3008-0.76172 0.38672-0.72266 0.11719-1.625-0.60156-2.0195z"/>
 <path d="m17.398 72.801c0.26172 0 0.51953-0.066406 0.74219-0.19922l6.4219-3.6406h-0.003906c0.72656-0.41016 0.98047-1.3281 0.57031-2.0508-0.40625-0.72266-1.3242-0.98047-2.0508-0.57031l-6.418 3.6602c-0.70312 0.40234-0.94922 1.293-0.55859 2 0.25 0.48828 0.75 0.79297 1.2969 0.80078z"/>
</svg>